<svg width="26" height="30" viewBox="0 0 26 30" fill="none" xmlns="http://www.w3.org/2000/svg">
<g clip-path="url(#clip0_65_8657)">
<path d="M12.8392 29.07C12.5192 29.07 12.1692 29.02 11.7892 28.91C5.21924 27.02 1.43924 22.53 0.539243 15.56C0.269243 13.43 0.189243 11.25 0.119243 9.15C0.0892434 8.15 0.0492434 7.15 -0.000756598 6.16C-0.0307566 5.58 0.129243 4.57 1.54924 4.39C3.21924 4.18 4.21924 3.2 4.41924 1.55C4.54924 0.51 5.12924 0 6.18924 0H6.22924C7.80924 0.02 9.39924 0.01 10.9792 0.01H12.7892H14.5892C16.1392 0.02 17.6992 0.03 19.2592 0C20.4092 0 20.9792 0.51 21.1192 1.61C21.3292 3.2 22.3092 4.16 23.9592 4.4C24.3892 4.46 25.5292 4.62 25.5192 6V6.41C25.5092 10.23 25.4992 14.17 24.5192 18.02C23.0692 23.73 19.3292 27.43 13.4292 29C13.2492 29.05 13.0492 29.07 12.8492 29.07H12.8392ZM1.69924 6.09C1.74924 7.09 1.78924 8.09 1.81924 9.09C1.88924 11.15 1.95924 13.29 2.22924 15.34C3.02924 21.57 6.39924 25.58 12.2592 27.26C12.7192 27.39 12.9292 27.36 12.9892 27.34C18.3292 25.92 21.5592 22.73 22.8692 17.59C23.7992 13.94 23.8092 10.1 23.8192 6.39V6.09C23.8192 6.09 23.7492 6.08 23.7192 6.08C21.2992 5.74 19.7392 4.19 19.4292 1.83C19.4292 1.78 19.4192 1.73 19.4092 1.7C19.3792 1.7 19.3392 1.7 19.2792 1.7C17.7092 1.73 16.1492 1.72 14.5792 1.72H12.7892H10.9792C9.38924 1.72 7.79924 1.72 6.20924 1.71C6.16924 1.71 6.13924 1.71 6.11924 1.71C6.11924 1.73 6.11924 1.75 6.11924 1.78C5.81924 4.18 4.18924 5.79 1.76924 6.09C1.74924 6.09 1.72924 6.09 1.70924 6.09H1.69924Z" fill="#140546"/>
<path d="M11.0202 18.7696C11.0202 18.7696 11.0002 18.7696 10.9802 18.7696C10.7402 18.7596 10.5202 18.6496 10.3702 18.4696L7.49023 15.0696L8.79023 13.9696L11.0802 16.6696L18.1802 9.63965L19.3802 10.8496L11.6302 18.5296C11.4702 18.6896 11.2502 18.7796 11.0302 18.7796L11.0202 18.7696Z" fill="#140546"/>
</g>
<defs>
<clipPath id="clip0_65_8657">
<rect width="25.52" height="29.07" fill="white"/>
</clipPath>
</defs>
</svg>
