<svg width="20" height="31" viewBox="0 0 20 31" fill="none" xmlns="http://www.w3.org/2000/svg">
<path d="M18.9773 3.23479L18.1556 3.80737V3.82555C17.6224 4.03458 17.2115 4.31633 16.8531 4.57081C16.2413 4.99797 15.7955 5.31607 14.7902 5.31607C13.785 5.31607 13.3392 5.00706 12.7273 4.57081C12.0455 4.08911 11.1976 3.49836 9.62413 3.49836C8.0507 3.49836 7.2028 4.0982 6.52098 4.57081C5.9965 4.93435 5.60315 5.2161 4.87762 5.28881C5.57692 4.87073 6.05769 4.08911 6.05769 3.18935C6.05769 1.84424 5.00874 0.762695 3.72378 0.762695C2.43881 0.762695 1.37238 1.85332 1.37238 3.18935C1.37238 4.21635 1.99301 5.08886 2.85839 5.44331V28.2193C1.22378 28.3647 0 28.8828 0 29.5008C0 30.237 1.6958 30.8277 3.78497 30.8277C5.87413 30.8277 7.56993 30.2279 7.56993 29.5008C7.56993 28.8828 6.3549 28.3647 4.71154 28.2193V15.6498C6.11014 15.5862 6.90559 15.0408 7.55245 14.5864C8.16434 14.1593 8.61014 13.8412 9.61538 13.8412C10.6206 13.8412 11.0664 14.1502 11.6783 14.5864C12.3601 15.0681 13.208 15.6589 14.7815 15.6589C16.3549 15.6589 17.2028 15.059 17.8846 14.5864C17.9895 14.5137 18.0944 14.441 18.1993 14.3683V14.341L19.4843 13.5049C19.8077 13.2958 20 12.9323 20 12.5324V3.80737C20 3.25297 19.4056 2.92578 18.9598 3.23479H18.9773ZM16.8531 12.9868C16.2413 13.414 15.7955 13.7321 14.7902 13.7321C13.785 13.7321 13.3392 13.4231 12.7273 12.9868C12.0455 12.5051 11.1976 11.9144 9.62413 11.9144C8.0507 11.9144 7.2028 12.5142 6.52098 12.9868C5.97028 13.3776 5.54196 13.6685 4.72902 13.7139V7.22467C6.12762 7.16105 6.92308 6.61574 7.56119 6.16131C8.17308 5.73415 8.61888 5.41605 9.62413 5.41605C10.6294 5.41605 11.0752 5.72506 11.6871 6.16131C12.3689 6.643 13.2168 7.23376 14.7902 7.23376C16.3636 7.23376 17.2115 6.63392 17.8934 6.16131C17.9808 6.09769 18.0682 6.04316 18.1556 5.97954V12.2325C17.6224 12.4415 17.2115 12.7233 16.8531 12.9777V12.9868Z" fill="#140546"/>
</svg>
