<svg width="43" height="28" viewBox="0 0 43 28" fill="none" xmlns="http://www.w3.org/2000/svg">
<g clip-path="url(#clip0_64_8648)">
<path d="M41.88 21.26H38.78V0.85C38.78 0.38 38.4 0 37.93 0H4.05C3.58 0 3.2 0.38 3.2 0.85V21.26H0.85C0.38 21.26 0 21.64 0 22.11V26.28C0 26.75 0.38 27.13 0.85 27.13H41.88C42.35 27.13 42.73 26.75 42.73 26.28V22.11C42.73 21.64 42.35 21.26 41.88 21.26ZM4.9 1.7H16.52V3.24H26.02V1.7H37.06V21.26H4.9V1.7ZM41.03 25.43H1.7V22.96H41.03V25.43Z" fill="#140546"/>
<path d="M23.9495 12.93C24.6595 12.25 25.1095 11.3 25.1095 10.24C25.1095 8.18 23.4295 6.5 21.3695 6.5C19.3095 6.5 17.6295 8.18 17.6295 10.24C17.6295 11.3 18.0795 12.25 18.7895 12.93C17.0895 13.85 15.9395 15.65 15.9395 17.71V18.56H17.6395V17.71C17.6395 15.65 19.3095 13.98 21.3695 13.98C23.4295 13.98 25.0995 15.65 25.0995 17.71V18.56H26.7995V17.71C26.7995 15.65 25.6495 13.85 23.9495 12.93ZM19.3295 10.24C19.3295 9.12 20.2395 8.2 21.3695 8.2C22.4995 8.2 23.4095 9.11 23.4095 10.24C23.4095 11.37 22.4995 12.28 21.3695 12.28C20.2395 12.28 19.3295 11.37 19.3295 10.24Z" fill="#140546"/>
</g>
<defs>
<clipPath id="clip0_64_8648">
<rect width="42.73" height="27.13" fill="white"/>
</clipPath>
</defs>
</svg>
